<?xml version="1.0" standalone="no"?>
<!DOCTYPE svg PUBLIC "-//W3C//DTD SVG 20010904//EN"
 "http://www.w3.org/TR/2001/REC-SVG-20010904/DTD/svg10.dtd">
<svg version="1.0" xmlns="http://www.w3.org/2000/svg"
 width="700.000000pt" height="700.000000pt" viewBox="0 0 700.000000 700.000000"
 preserveAspectRatio="xMidYMid meet">
<metadata>
Created by potrace 1.11, written by Peter Selinger 2001-2013
</metadata>
<g transform="translate(0.000000,700.000000) scale(0.100000,-0.100000)"
fill="#000000" stroke="none">
<path d="M5878 6995 c-1 -2 -55 -6 -118 -10 -63 -3 -133 -8 -155 -10 -88 -9
-161 -17 -185 -20 -14 -1 -50 -6 -80 -9 -30 -4 -80 -11 -110 -16 -30 -5 -71
-12 -90 -15 -731 -118 -1490 -399 -2140 -790 -555 -334 -1001 -705 -1465
-1219 -5 -6 -44 -51 -85 -101 -41 -49 -77 -92 -80 -95 -3 -3 -27 -34 -55 -70
-27 -36 -53 -69 -58 -75 -87 -110 -278 -390 -367 -540 -29 -49 -60 -101 -69
-115 -49 -78 -238 -451 -297 -585 -35 -79 -111 -270 -144 -360 -12 -33 -26
-69 -30 -80 -25 -58 -138 -430 -154 -505 -3 -14 -19 -79 -35 -145 -16 -66 -33
-140 -36 -165 -4 -24 -8 -47 -10 -50 -2 -3 -6 -25 -10 -50 -4 -25 -8 -47 -10
-50 -2 -3 -6 -23 -9 -45 -27 -194 -38 -273 -41 -293 -2 -13 -7 -56 -10 -95 -4
-40 -9 -83 -11 -97 -25 -164 -25 -955 1 -1111 2 -13 7 -55 10 -94 10 -108 12
-126 18 -131 6 -6 32 -10 127 -19 36 -3 81 -8 100 -10 221 -26 875 -27 1100
-1 34 4 140 15 210 22 19 2 49 5 65 8 17 3 48 8 70 11 58 8 177 27 198 31 9 2
27 6 39 9 12 2 40 7 63 11 22 3 69 12 105 21 36 8 72 16 80 18 316 70 794 226
1047 341 28 13 55 24 59 24 11 0 422 204 489 242 33 19 94 55 135 79 41 24 79
46 85 48 22 9 299 194 401 267 283 202 502 390 769 658 296 297 478 513 688
816 48 69 90 130 95 135 12 16 134 212 183 295 337 575 596 1260 723 1915 25
130 51 290 61 370 3 28 8 59 10 70 2 11 7 56 11 100 3 44 8 88 10 98 26 137
25 915 -1 1112 -3 17 -7 59 -10 95 -5 64 -14 122 -19 127 -5 5 -145 22 -231
28 -49 3 -101 9 -115 11 -28 6 -716 14 -722 9z"/>
</g>
</svg>
