<svg id="bonsai" xmlns="http://www.w3.org/2000/svg" width="697" height="1004" viewBox="0 0 697 1004">
    <polygon id="Branch-F14" class="wood-mid" points="2.291 .523 -2.265 -10.595 -2.265 -29 -4 -10.595 -2.265 .523"/>
    <polygon id="Branch-F13" class="wood-dark" points="1.806 .815 1.075 -23.269 6.743 -63.604 -8 -93 3.931 -63.135 -2.42 -24.664 -4.924 -.131"/>
    <polygon id="Branch-F12" class="wood-dark" points="2.441 .857 -9 -1.418 -9 -1.418 -.721 -7.83 -.721 -7.83 4.197 -27.136 -4.068 -56.563 1.977 -84 -.292 -55.651 8.12 -26.82 4.399 -6.295"/>
    <polygon id="Branch-F11" class="wood-mid" points="-8.844 -4.122 -10 -21.635 -1.245 -35.232 -3.044 -62.208 .346 -74.894 -2.522 -119 7.676 -75.115 5.237 -61.145 9.213 -33.64 3.177 -16.126 3.699 .289"/>
    <polygon id="Branch-F10" class="wood-mid" points="-7 .16 1.592 -21.637 .239 -75 5.185 -20.944 .696 .16"/>
    <polygon id="Branch-F9" class="wood-mid" points="8.321 .56 -3.308 -13.361 -9 -43 -7.705 -11.083 -4.213 -3.097 -7.148 .942"/>
    <polygon id="Branch-F8" class="wood-mid" points="-.39 .664 3.333 -5.825 3.202 -28.984 -12 -66 5.524 -30.863 9.394 -7.259 11.909 .171"/>
    <polygon id="Branch-F7" class="wood-dark" points="9.271 .561 .218 -22.404 -3.544 -55.485 2.945 -86.77 -3.985 -113 -.879 -87.563 -10 -56.037 -7.374 -22.32 -4.858 .561"/>
    <polygon id="Branch-F6" class="wood-mid" points="9.231 .885 3.836 -25.685 2.193 -56.084 6.442 -91.28 12.752 -132.773 -14 -204 10.333 -132.742 3.431 -100.519 -2.17 -69.063 -5.93 -34.502 -3.86 .828"/>
    <polygon id="Branch-F5" class="wood-dark" points="13.772 .865 2.471 -24.309 .806 -37.987 4.406 -46.074 12.055 -56.991 9.27 -66.857 .998 -73 -11.391 -65.112 -11.331 -54.817 -15 -40.363 -12.206 -25.284 -6.362 -9.26 -7.73 -1.398"/>
    <polygon id="Branch-F4" class="wood-dark" points="-3.216 .526 -7 -16.263 -5.489 -32.936 6.962 -56 -3.259 -31.403 -4.144 -16.47 1.626 .526"/>
    <polygon id="Branch-F3" class="wood-mid" points="-4 1.034 .389 -7.828 -.171 -21.625 1.035 -31 2.904 -9.638 1.734 1.034"/>
    <polygon id="Branch-F2" class="wood-mid" points="7.129 1.08 5.812 -15.265 5.581 -43.29 -4.759 -55.344 -.498 -74 -9 -55.895 -1.334 -42.041 -1.624 -18.804 -4.422 -3.801"/>
    <polygon id="Branch-F1" class="wood-dark" points="-17 .472 -.084 -17.5 4.931 -30.211 .542 -54.76 -5.423 -71.049 -12.108 -93.218 -12.901 -112 -7.48 -87.947 5.387 -61.817 15.193 -32.052 9.208 -15.15 8.708 -8.003 -.084 .472"/>
    <polygon id="Branch-E1" class="wood-dark" points="9.12 .27 4.64 -14.2 10.009 -42.246 -8.723 -84 6.434 -42.603 -2.304 -18.372 -10 .395"/>
    <polygon id="Branch-D5" class="wood-mid" points="3.828 .955 2.399 -8.416 -.596 -63 -1.724 -36.766 -5 -15.83 -4.238 -4.541 -4.081 .955"/>
    <polygon id="Branch-D4" class="wood-mid" points="7.912 .437 1.542 -30.94 1.523 -49.701 -3.431 -52 -8.025 -48.902 -9 -42.833 -5.538 -36.425 -5.543 -25.128 -6.799 .437"/>
    <polygon id="Branch-D3" class="wood-dark" points="8.99 .753 .898 -26.439 1.552 -52.348 -2.614 -74 -3.198 -44.234 -3.947 -18.851 -10 -5.961"/>
    <polygon id="Branch-D2" class="wood-mid" points="-7 1.088 -2.071 -30.828 -3.298 -72.799 -.101 -103 1.865 -63.856 5.535 -35.219 3.28 -4.847"/>
    <polygon id="Branch-D1" class="wood-dark" points="-10 .657 -6.181 -11.276 -6.324 -28.775 -10 -44.661 -4.395 -53 5.086 -48.786 9.932 -35.63 5.086 -26.171 5.086 .657"/>
    <polygon id="Branch-B1" class="wood-darkest" points="7.861 1.039 -3.178 -15.51 -8 -38 -8 -13.737 -6.381 1.039"/>
    <polygon id="Branch-A4" class="wood-mid" points="-6.631 -2.361 -5.665 -14.017 -6.194 -23.482 -5.019 -43.239 -7 -66.884 .795 -101 -4.31 -66.113 -1.372 -40.296 -1.438 -20.473 6.641 -8.532 2.339 .211"/>
    <polygon id="Branch-A3" class="wood-mid" points="5.888 .796 -.943 -32.355 -2.865 -83.915 -2.608 -121.113 -3.782 -168.773 -4.98 -169 -5.714 -105.761 -5.409 -45.485 -5.895 -18.44 -7 -6.825"/>
    <polygon id="Branch-A2" class="wood-dark" points="5.347 .889 5.767 -25.01 .169 -39.863 -4.374 -62 -4.374 -39.863 -2.277 -23.395 -6 .889"/>
    <polygon id="Branch-A1" class="wood-dark" points="-7.338 -8.789 -9.92 -35.734 -13 -46.22 -3.438 -56 7.452 -52.984 9.696 -45.052 1.892 -33.404 2.409 -18.487 12.669 -1.818 1.091 .711"/>
    
    <defs>
        <polygon id="Leaf-32" fill="#38B371" points="12.02 -47 .915 -39.718 -6.933 -30.863 -11.917 -27.752 -16 -27.979 -9.316 -15.736 1.515 -9.196 .049 .929 3.563 -7 7.804 -15.06 5.019 -21.311 -.496 -23.96 -2.494 -26.103 4.252 -30.002 12.005 -27.826 16.081 -31.627 15.749 -40.722"/>
        <polygon id="Leaf-31" fill="#6FE8A8" points="-1.111 .856 4.54 -8.326 11.536 -14.763 8.809 -16.971 11.438 -23.922 9.791 -29.539 5.081 -30.5 2.291 -33.964 1.359 -42.181 -7.062 -49 -12 -42.902 -11.442 -40.148 -9.193 -38.327 -10.772 -32.827 -11.227 -26.64 -4.628 -23.403 -2.03 -14.941 -.733 -5.188"/>
        <polygon id="Leaf-30" fill="#65E4A0" points="2.049 -5.295 5.311 -14.627 6.813 -20.246 9.314 -20.189 11.294 -26.895 9.075 -36.353 4.953 -40.457 2.286 -50.04 -6.385 -61 -7.934 -55.025 -7.621 -49.406 -12 -40.429 -11.47 -36.133 -6.313 -32.409 -7.064 -27.015 -3.963 -18.27 -3.616 -10.332 -.857 .664"/>
        <polygon id="Leaf-29" fill="#3AB674" points="-13 -45.333 -5.23 -34.824 -6.048 -31.279 .203 -16.947 -.639 .624 7.176 -5.066 12.659 -7.909 7.771 -17.457 4.4 -30.692 6.431 -39.493 1.898 -41.893 .247 -48.157 -3.403 -49"/>
        <polygon id="Leaf-28" fill="#2CB069" points=".261 .867 -13.162 -12.991 -13.146 -17.557 -18 -22.826 -13.954 -26.937 -13.677 -36.891 -2.087 -49.955 13.047 -64.291 17.255 -75 15.111 -58.695 3.943 -47.29 -5.544 -43.546 -12.631 -19.624 -2.601 -12.172"/>
        <polygon id="Leaf-27" fill="#43C07D" points=".215 .756 5.988 -8.505 14.117 -13.309 10.001 -16.731 10.482 -30.511 1.638 -40 -4.365 -31.029 -13.231 -26.673 -15 -22.449 -7.243 -19.356 -3.322 -10.639"/>
        <polygon id="Leaf-26" fill="#5FDE9A" points="8.865 -25.395 -1.333 -32.78 -8.12 -33 -10 -26.315 -6.114 -12.403 -.26 1.102 .109 -11.238 2.731 -20.4"/>
        <polygon id="Leaf-25" fill="#4FDB90" points="-1.52 .196 -9.503 -7.79 -9.489 -23.905 -8.588 -37.39 -10 -43.371 .799 -60 3.481 -48.384 8.23 -32.484 5.251 -18.097 5.044 -3.897"/>
        <polygon id="Leaf-24" fill="#258B55" points=".535 .88 -4.442 -6.556 -5 -14.703 -.607 -20.264 -1.433 -26.61 1.416 -29 3.161 -25.498 2.033 -22.479 4.727 -11.522 3.376 -3.323"/>
        <polygon id="Leaf-23" fill="#26995C" points="-.859 .609 -4.55 -4.325 -4.896 -16.513 -1.138 -23.676 6.302 -29.77 7.854 -38.575 1.837 -50 -.947 -34.21 -3.976 -21.73 -7.392 -14.231 -9 -5.11 -6.727 -1.427"/>
        <polygon id="Leaf-22" fill="#62E69F" points="4.047 -18 -3.168 -17.336 -7 -12.603 -3.497 -3.879 -.234 .486 1.592 .241 1.36 -4.6 5.134 -6.143 5.796 -10.077"/>
        <polygon id="Leaf-21" fill="#4CB57D" points="-7.846 -39.77 -8 -26.764 -6.173 -15.442 2.111 -9.984 1.799 -1.611 -1.099 .821 5.496 1.042 4.477 -2.75 7.16 -14.221 1.044 -19.02 .951 -26.193 4.238 -28.952 -1.319 -38.287 -6.71 -42"/>
        <polygon id="Leaf-20" fill="#3CE38A" points="-1.704 1.072 -1.431 -7.846 9.927 -12.742 14.816 -17.745 15.56 -25.001 15.389 -39 8.07 -33.733 1.991 -25.366 -7.321 -19.526 -17 -16.966 -13.037 -4.682"/>
        <polygon id="Leaf-19" fill="#73E8AA" points="-1.222 .417 .315 -15.861 -1.827 -34.279 -5.274 -52.015 -9 -63.782 -7.297 -67 1.032 -56.317 5.745 -32.071 7.923 -15.731 4.354 -7.063"/>
        <polygon id="Leaf-18" fill="#5DC78E" points="-.014 1.129 -5.159 -5.316 -5.893 -14.188 -7.076 -21.444 -11 -29.535 -4.069 -39 6.094 -38.252 10.845 -32.164 9.535 -16.829 10.51 -5.467"/>
        <polygon id="Leaf-17" fill="#36C87A" points="-.699 .183 -2.737 -5.273 -1.538 -12.075 -8.815 -21.709 -6.23 -30.178 -12 -36.313 -8.915 -42 2.85 -36.96 2.292 -33.793 10.406 -25.726 9.597 -16.255 5.706 -3.784"/>
        <polygon id="Leaf-16" fill="#2D8C59" points="-.536 .941 -1.833 -5.855 1.626 -12.745 9.481 -17.761 11.303 -25.586 15.383 -31 7.264 -28.629 6.121 -21.863 -2.935 -12.628 -10.834 -12.639 -17 -9.219 -8.525 -7.676"/>
        <polygon id="Leaf-15" fill="#69EFA7" points="-.064 -24.057 -4.45 -40.242 -.371 -51.291 10.015 -65.313 8.492 -70 3.7 -59.939 -9.11 -54.585 -9.363 -44.818 -6.797 -36.919 -10 -28.067 -.55 1.018 2.358 -8.742"/>
        <polygon id="Leaf-14" fill="#79E6AC" points="-.827 .283 2.808 -12.471 2.808 -28.761 11.338 -43 -2.574 -29.688 -13 -18.656 -6.655 -4.227"/>
        <polygon id="Leaf-13" fill="#5FCB91" points="-.2 .264 1.929 -10.397 6.504 -30 -1.863 -23.863 -8 -12.173 -5.897 -3.631"/>
        <polygon id="Leaf-12" fill="#4DD08A" points="4.77 -14.569 5.138 -21.778 6.225 -28 -3.342 -20.248 -8 -13.003 -1.929 -7.826 -.512 -3.709 -.471 .165 4.754 -3.639"/>
        <polygon id="Leaf-11" fill="#30BE72" points="10.777 -37.446 3.854 -34.64 -7.308 -23.674 -6.854 -13.613 -3.244 -4.522 -.459 .41 -9.572 -2.911 -11.448 -14.194 -12 -24.87 -6.593 -40.663 1.535 -41"/>
        <polygon id="Leaf-10" fill="#369E66" points=".698 .956 -3.626 -4.578 -3.728 -9.811 -7.355 -14.454 -4.576 -18.178 -4.3 -24.796 -9 -30.811 -1.572 -36.615 4.321 -43 1.914 -35.761 6.12 -30.378 4.985 -22.956 9.072 -17.725 7.03 -12.903 2.686 -7.248 4.586 -4.815"/>
        <polygon id="Leaf-9" fill="#60E59D" points="-.643 .666 -6.946 -3.791 -11 -13.067 -6.473 -22.018 -3.921 -31.544 1.148 -34 6.66 -26.589 10.93 -15.632 7.895 -4.308"/>
        <polygon id="Leaf-8" fill="#36B973" points="6.581 -8.272 10.254 -16.131 9.314 -21.468 2.401 -25.506 5.258 -34.114 2.255 -38.92 4.671 -46.2 2.019 -52.599 -5.035 -56.714 -5.202 -62 -9.724 -51.934 -8.447 -46.059 -11 -36.407 -9.241 -25.054 -7.457 -18.053 -3.414 -13.514 -1.949 1.081"/>
        <polygon id="Leaf-7" fill="#6ADC9F" points="-.141 .735 1.136 -5.563 7.982 -10.158 16.472 -15.041 9.703 -19.967 7.603 -27.004 13.545 -32.24 8.667 -36.125 9.792 -45.053 6.127 -52.568 -.722 -57.176 -1.812 -66.266 -8.151 -68.966 -11.735 -70.783 -12.835 -73.039 -18 -74 -14.997 -69.192 -10.752 -61.906 -13.331 -56.084 -10.61 -48.276 -10.363 -41.856 -3.462 -35.852 -2.163 -27.719 -1.935 -22.352 -6.069 -20.336 -7.784 -14.936 -4.639 -8.487 -1.001 -5.777"/>
        <polygon id="Leaf-6" fill="#44E48E" points="-.922 .448 10.742 -20.095 6.25 -27.011 10.8 -35.186 16.951 -39.18 6.804 -54.804 2.229 -64.545 4.243 -71.245 -2.337 -77.716 -6.035 -87.072 -10.634 -90.492 -18 -93 -9.531 -82.654 -1.465 -67.538 -10.35 -58.917 -4.827 -52.872 .654 -50.81 -2.424 -41.687 -.681 -34.058 3.241 -25.057 2.218 -14.559"/>
        <polygon id="Leaf-5" fill="#4DD08A" points="-.609 .623 -11 -20.057 -8.716 -27.655 -3.17 -32.05 -3.17 -45.14 -.609 -56.468 4.585 -61 9.619 -51.071 10.807 -38.645 9.619 -30.188 4.585 -24.915 10.807 -11.636 6.325 -3.179"/>
        <polygon id="Leaf-4" fill="#3CBD78" points="-.787 .953 -3.076 -11.651 1.993 -25.496 9.214 -36.181 12.353 -39.192 10.578 -49.161 13.927 -54.171 19.018 -57.713 20.099 -68 12.478 -67.236 5.528 -59.13 4.547 -49.795 -7.989 -41.33 -8.866 -32.982 -7.397 -25.229 -12.036 -25.717 -21 -16.752 -20.191 -12.222 -8.889 -11.034"/>
        <polygon id="Leaf-3" fill="#45C27F" points="-.04 1.024 5.01 -21.122 11.645 -33.876 10.481 -39.959 1.597 -58.95 -5.093 -74 -6.064 -62.907 -12 -54.339 -10.548 -48.435 -2.411 -31.349 -4.407 -23.138 1.68 -18.633"/>
        <polygon id="Leaf-2" fill="#5BD895" points="-.948 .418 4.358 -8.201 11.211 -12.167 9.796 -18.026 7.609 -37.289 11.594 -54.727 1.372 -64.205 -12 -66 -5.712 -54.503 -6.017 -44.957 1.791 -32.381 3.56 -26.741 3.013 -21.828 5.424 -16.182"/>
        <polygon id="Leaf-1" fill="#43C580" points="-1.577 -10.134 -1.486 .417 -3.636 -6.964 -9.645 -15.373 -9.24 -24.187 -14 -30.511 -10.118 -41.374 -2.649 -50.893 4.409 -56.413 9.248 -57 12.482 -43.535 11.335 -30.017 5.688 -19.433"/>
    </defs>

    <g id="Trunk-F">
        <polygon class="wood-mid" points="-14.783 12.403 -20.084 -10.292 -27.488 -34.344 -24.077 -47.105 -31 -72.886 -19.391 -105.156 -15.346 -130.146 -2.685 -146.504 8.191 -157 16.249 -155.877 17.618 -150.304 11.149 -139.309 1.911 -111.426 -3.22 -75.938 -2.88 -49.598 -3.154 -42.007 -1.265 -33.85 13.978 -19.087 9.355 -7.646 13.438 4.496 3.485 18.668"/>
        <polygon class="wood-dark" points="-14.783 12.403 -20.084 -10.292 -27.488 -34.344 -24.077 -47.105 -31 -72.886 -19.391 -105.156 -15.346 -130.146 -2.685 -146.504 1.185 -140.72 -7.874 -127.126 -20.774 -80.427 -17.985 -40.606 -17.246 -25.954 -8.502 -10.756 -13.461 -6.371"/>
    </g>
    <g id="Trunk-E">
        <polygon class="wood-mid" points="-20.335 11.926 -30.72 -1.539 -31.037 -12.145 -24.451 -24.028 -25.99 -35.858 -21.267 -55.661 -22.923 -73.802 -35.857 -80.971 -36 -91.49 -31.996 -105.666 -14.721 -108 -.361 -104.641 6.48 -100.849 8.408 -91.402 14.507 -83.131 8.538 -69.575 5.712 -54.266 4.218 -29.16 6.871 -6.666 12.295 -.15 2.361 19.784"/>
        <polygon class="wood-dark" points="-21.267 -55.661 -22.923 -73.802 -6.684 -78.013 3 -86.592 .468 -98.256 -14.721 -108 -.361 -104.641 6.48 -100.849 8.408 -91.402 14.507 -83.131 8.538 -69.575 7.038 -59.672 5.193 -47.481 -2.986 -62.751"/>
        <polygon class="wood-dark" points="-20.335 11.926 -30.72 -1.539 -31.037 -12.145 -24.451 -24.028 -6.044 17.632"/>
    </g>
    <g id="Trunk-D">
        <polygon class="wood-mid" points="-16.859 6.333 -23.94 -9.294 -27 -41.244 -19.544 -50.44 -20.943 -63.412 -3.938 -75 10.663 -70.956 22.444 -52.316 5.504 -35.471 4.103 -25.863 6.667 -15.027 4.103 -7.413 10.663 .406 1.17 12.715"/>
        <polygon class="wood-dark" points="-16.859 6.333 -23.94 -9.294 -27 -41.244 -19.544 -50.44 -20.943 -63.412 -3.938 -75 10.663 -70.956 3.137 -60.706 -9.886 -58.59 -18.556 -36.849 -16.859 -20.059 -7.824 -.83"/>
    </g>
    <g id="Trunk-C">
        <polygon class="wood-mid" points="-15.83 .074 -21 -22.661 -19.827 -44.373 -18.739 -55.519 -3.872 -67 6.526 -62.019 13.673 -50.257 16.285 -39.193 9.781 -25.7 6.866 -12.66 11.953 1.627 4.329 12.582"/>
        <polygon class="wood-light" points="-6.996 -30.767 1.557 -29.194 8.368 -31.179 16.285 -39.193 9.781 -25.7 6.866 -12.66"/>
        <polygon class="wood-dark" points="-15.83 .074 -21 -22.661 -19.827 -44.373 -18.739 -55.519 -3.872 -67 6.526 -62.019 -10.759 -48.796 -15.87 -29.077 -8.853 -9.304 -8.977 -3.268"/>
    </g>
    <g id="Trunk-B">
        <polygon class="wood-mid" points="-19 -22.082 -11.955 -38.756 -15.449 -49.511 -9.161 -64.702 -10.936 -83.096 -14.113 -92.872 -9.417 -103.087 5.704 -108 17.104 -100.117 22.474 -83.59 27.786 -53.85 28.074 -39.152 22.845 -18.775 17.138 3.306 2.026 19.092 -17.422 9.782"/>
        <polygon class="wood-dark" points="-11.955 -38.756 -15.449 -49.511 -9.161 -64.702 -10.936 -83.096 -14.113 -92.872 -9.417 -103.087 -2.166 -105.443 .235 -92.065 .158 -64.702"/>
    </g>
    <g id="Trunk-A">
        <polygon class="wood-mid" points="-27.437 29.741 -27.766 8.315 -26.356 -13.657 -26.854 -42.014 -34 -59.053 -32.171 -72.889 -22.426 -95.573 -1.118 -111 18.625 -102.17 30.311 -90.149 31.875 -70.981 32.126 -48.476 26.616 -25.118 33.119 -9.011 28.155 13.28 -9.003 35.48"/>
        <polygon class="wood-dark" points="-1.118 -111 18.625 -102.17 30.311 -90.149 31.875 -70.981 32.126 -48.476 26.616 -25.118 33.119 -9.011 28.155 13.28 -.543 -31.105 -3.785 -82.293 -15.536 -100.518"/>
    </g>

    <g id="static" fill="none" fill-rule="evenodd">
        <g transform="translate(163 714)">
            <path fill="#A8ADC5" d="M51.9544748,3.19744231e-14 L387.045525,3.19744231e-14 C389.586124,4.5046753e-14 392.031475,0.967007927 393.884936,2.70462796 L437.507136,43.6004397 C438.444602,44.4793148 438.902751,45.7550643 438.738601,47.0295525 L437.70976,55.0176924 L437.70976,55.0176924 L1.24577076,55.0176924 L0.251169751,47.0197466 C0.0933509006,45.7506683 0.551858742,44.4826324 1.48483005,43.6079718 L45.1150635,2.70462796 C46.9685249,0.967007927 49.413876,2.30791911e-14 51.9544748,3.19744231e-14 Z"/>
            <path fill="#24262E" d="M412,215 L412,220 L408,220 C404.134007,220 401,223.134007 401,227 C401,230.865993 397.865993,234 394,234 L388,234 C383.029437,234 379,238.029437 379,243 L379,243 L379,243 L61,243 C61,238.029437 56.9705627,234 52,234 L46,234 C42.1340068,234 39,230.865993 39,227 C39,223.134007 35.8659932,220 32,220 L28,220 L28,220 L28,215 L412,215 Z"/>
            <path fill="#323751" d="M9.23040937,199.943052 L25,170 L25,170 L414,170 L429.769591,199.943052 C429.920919,200.230391 430,200.550259 430,200.875012 L430,216.38055 C430,218.589689 428.209139,220.38055 426,220.38055 L13,220.38055 C10.790861,220.38055 9,218.589689 9,216.38055 L9,200.875012 C9,200.550259 9.07908124,200.230391 9.23040937,199.943052 Z"/>
            <path fill="#3E466D" d="M4.53783685,45 L434.519215,45 C436.728358,44.9999919 438.519223,46.7908565 438.519223,49 C438.519223,49.155167 438.510194,49.3102025 438.492182,49.4643206 C435.763724,72.810423 431.892719,96.1556495 426.879168,119.5 C421.546047,144.332342 414.919658,169.165675 407,194 L32,194 C24.4076332,169.171669 17.944246,144.338336 12.6098383,119.5 C7.59861685,96.1665002 3.58561626,72.8374152 0.570836537,49.5127449 C0.287655896,47.3218316 1.83417779,45.3161814 4.02509096,45.0329997 C4.19512243,45.0110226 4.36639097,45 4.53783685,45 Z"/>
            <path fill="#3D3E38" d="M54.7962643,3 L380.203736,3 C381.346287,3 382.434303,3.48859119 383.193373,4.34254464 L411.041131,35.6712723 C411.774967,36.4968379 411.700606,37.7609826 410.87504,38.4948186 C410.508938,38.8202429 410.036141,39 409.546312,39 L25.4536877,39 C24.3491182,39 23.4536877,38.1045695 23.4536877,37 C23.4536877,36.5101717 23.6334448,36.0373746 23.958869,35.6712723 L51.806627,4.34254464 C52.5656967,3.48859119 53.653713,3 54.7962643,3 Z"/>
        </g>
        <g transform="translate(263.191 631.21)">
            <polygon class="wood-mid" points="249.44 92.251 222.642 73.311 200.6 66.703 185.768 56.814 179.123 58.938 168.991 45.421 164.681 45.421 161.782 38.848 152.775 34.424 147.801 28.558 140.353 18.34 129.302 0 105.817 15.313 83.936 34.424 77.144 38.848 74.879 46.125 70.376 51.991 62.963 58.938 50.889 66.703 39.564 74.937 19.438 90.307 0 104.79 62.963 99.032 44.636 113.79 91.352 108.848 100.842 104.919 103.126 111.055 100.842 117.548 105.817 109.974 105.817 104.79 114.157 106.988 124.72 113.79 137.68 116.156 126.265 111.904 119.863 106.988 140.353 113.79 161.782 117.914 147.801 111.904 163.327 113.683 209.386 109.639"/>
            <polygon class="wood-dark" points="249.44 92.251 222.642 73.311 200.6 66.703 185.768 56.814 179.123 58.938 168.991 45.421 164.681 45.421 161.782 38.848 152.775 34.424 147.801 28.558 140.353 18.34 129.302 0 129.302 38.848 157.517 96.794 209.386 109.639"/>
            <polygon class="wood-dark" points="93.496 46.886 96.436 38.684 103.141 35.312 103.141 41.099"/>
            <polygon class="wood-dark" points="107.566 35.312 111.192 31.665 115.558 26.047 118.197 35.312 118.197 42.939 107.566 41.099"/>
            <polygon class="wood-mid" points="155.269 72.442 163.907 81.815 187.725 92.251 171.497 81.815 166.756 72.442 163.907 61.093"/>
            <polygon class="wood-mid" points="179.589 70.062 187.725 74.937 187.725 85.47 198.034 93.85 200.666 79.395 195.433 70.062"/>
            <polygon class="wood-dark" points="70.376 70.062 74.328 61.093 82.282 58.957 88.332 61.093 103.141 58.957 103.141 74.937 93.496 74.937 90.629 70.062 79.4 72.485"/>
            <polygon class="wood-dark" points="89.183 79.395 89.183 92.251 82.825 102.401 98.318 92.251"/>
        </g>
        <g transform="translate(200.383 678.095)">
            <polygon fill="#624F43" points="0 68.739 31.408 71.028 75.694 70.998 98.478 60.757 92.964 49.786 77.409 49.908 45.673 65.018 18.528 65.018 24.078 60.757 18.528 56.437 4.043 60.757 11.073 65.018"/>
            <polygon fill="#775844" points="276.887 45.365 293.127 41.783 298.705 49.176 289.04 52.146 272.195 52.146"/>
            <polygon fill="#775844" points="342.754 52.146 340.419 58.033 347.889 63.089 335.192 66.905 289.04 66.905 258.241 71.028 276.887 60.757 239.455 57.905 249.495 52.146 269.707 54.718 296.707 54.718 309.223 50.98 316.829 49.176"/>
            <polygon fill="#272820" points="33.679 41.539 75.694 17.717 98.478 9.625 92.566 13.943 122.166 0 128.504 0 130.74 5.814 103.822 23.176 75.694 49.176 39.351 65.018 24.078 58.033"/>
        </g>
        <g transform="translate(211.456 701.271)">
            <polygon fill="#D8D8D8" points="107.106 18.363 118.702 23.317 122.111 34.064 107.106 39.577 100.074 26.337"/>
            <polygon fill="#D8D8D8" points="98.471 0 106.018 13.688 96.924 23.506 79.479 18.363 79.479 10.092"/>
            <polygon fill="#D8D8D8" points="54.942 21.128 58.298 7.049 75.068 4.875 77.505 18.363 68.754 32.339 51.735 25.346"/>
            <path fill="#E8E7E7" d="M52.2036843,18.3630649 C52.2036843,18.3630649 55.3248087,22.9107936 61.5670575,32.006251 L54.9421261,49.1255024 L44.751064,51.3509139 L34.5999042,32.006251 L42.5792357,21.8471108 C48.9955347,19.5244135 52.2036843,18.3630649 52.2036843,18.3630649 Z"/>
            <polygon fill="#F2F2F2" points="18.275 37.371 25.682 34.857 38.28 36.114 28.278 39.577 23.151 43.621"/>
            <polygon fill="#D8D8D8" points="4.566 28.97 18.275 23.506 20.334 26.238 4.566 39.577 0 32.339"/>
            <polygon fill="#D8D8D8" points="24.882 51.351 28.278 47.064 38.28 43.621 42.616 51.351"/>
            <polygon fill="#F6F6F6" points="219.693 32.339 224.829 39.577 219.693 47.486 202.206 43.621 202.206 39.239 209.583 37.048"/>
            <polygon fill="#D8D8D8" points="243.622 32.339 247.168 45.572 239.404 49.648 224.829 47.486 224.829 40.993 233.808 34.857"/>
            <polygon fill="#D8D8D8" points="243.622 32.339 243.622 22.026 253.195 18.607 265.814 28.97 265.814 34.857"/>
            <polygon fill="#D8D8D8" points="302.544 34.729 323.006 36.751 329.346 40.769 323.006 48.955 302.544 44.181"/>
            <polygon fill="#F9F9F9" points="326.172 20.775 334.942 28.97 340.838 28.97 342.989 24.873 332.515 15.408 324.119 18.363"/>
            <polygon fill="#E7E7E7" points="314.807 0 324.119 7.513 328.208 22.189 316.55 26.61 304.075 18.363 307.51 4.875"/>
            <polygon fill="#F5F5F5" points="301.406 26.732 309.103 18.363 320.1 18.607 324.119 26.732 320.1 34.857 299.4 28.654"/>
            <polygon fill="#D8D8D8" points="282.444 7.524 299.4 4.875 309.143 11.753 301.406 23.506 277.967 22.189"/>
            <polygon fill="#D8D8D8" points="270.847 33.564 282.444 26.61 293.26 30.087 287.242 39.913 270.847 39.239"/>
            <polygon fill="#EDEDED" points="338.89 43.729 333.544 51.915 355.995 51.915 350.658 44.802"/>
            <polygon fill="#E8E7E7" points="102.624 34.984 102.624 18.244 92.838 13.688 83.644 21.538 85.23 33.225 87.404 43.621"/>
            <polygon fill="#F1F1F1" points="59.376 27.804 77.505 32.278 87.404 43.621 71.588 51.351 54.942 43.621 54.942 32.278"/>
            <polygon fill="#EFEFEF" points="104.232 51.351 111.991 39.573 110.519 27.804 100.426 34.057 93.069 36.217 77.505 48.837 94.748 48.837"/>
            <polygon fill="#EAEAEA" points="290.544 31.955 300.445 28.729 305.756 40.08 305.756 48.844 292.052 45.136"/>
            <polygon fill="#E8E8E8" points="270.329 32.339 277.967 37.008 270.329 43.621 253.754 43.621 244.277 39.577 248.658 31.542"/>
            <polygon fill="#F6F6F6" points="285.964 45.483 279.544 51.976 298.507 51.976 301.176 43.729"/>
        </g>
    </g>
</svg>